<?xml version="1.0" standalone="no"?>
<!DOCTYPE svg PUBLIC "-//W3C//DTD SVG 20010904//EN"
 "http://www.w3.org/TR/2001/REC-SVG-20010904/DTD/svg10.dtd">
<svg version="1.0" xmlns="http://www.w3.org/2000/svg"
 width="209.000000pt" height="209.000000pt" viewBox="0 0 209.000000 209.000000"
 preserveAspectRatio="xMidYMid meet">
<metadata>
Created by potrace 1.11, written by Peter Selinger 2001-2013
</metadata>
<g transform="translate(0.000000,209.000000) scale(0.100000,-0.100000)"
fill="#000000" stroke="none">
<path d="M1087 2002 c-16 -3 -17 -73 -17 -963 0 -527 3 -960 8 -960 21 -4 989
-5 1000 -1 9 3 12 205 12 963 0 527 -3 959 -7 960 -11 1 -122 1 -158 0 l-30
-1 -1 -613 c0 -634 -3 -707 -29 -809 -52 -199 -212 -318 -432 -322 -50 0 -94
2 -98 6 -10 10 -47 209 -41 223 3 9 28 13 76 14 96 1 144 15 191 58 74 67 72
53 76 791 l2 652 -22 1 c-77 3 -516 3 -530 1z"/>
<path d="M7 1993 c-4 -3 -7 -193 -6 -422 0 -309 3 -408 11 -386 6 17 16 33 22
37 6 4 7 8 3 8 -4 0 -2 10 5 23 6 12 13 28 14 36 2 8 8 17 14 21 7 4 11 10 10
14 -1 4 4 21 10 39 7 18 14 38 16 46 1 8 8 17 14 21 7 4 11 10 11 14 -1 3 -1
7 0 9 0 1 2 11 4 21 2 10 10 23 17 27 7 5 9 9 4 9 -5 0 -3 7 4 15 7 8 9 15 5
15 -5 0 0 9 11 21 10 12 17 22 15 23 -6 2 10 46 17 48 4 0 40 2 81 3 71 3 101
-7 101 -32 0 -5 13 -35 29 -68 16 -33 27 -63 25 -67 -3 -5 0 -8 6 -8 6 0 8 -5
5 -10 -3 -5 -1 -10 4 -10 6 0 11 -9 11 -19 0 -11 5 -23 10 -26 6 -4 8 -11 5
-16 -4 -5 -2 -9 3 -9 5 0 13 -10 17 -22 4 -13 8 -25 9 -28 1 -3 7 -15 14 -26
6 -12 8 -24 5 -28 -3 -3 -2 -6 4 -6 10 0 28 -46 25 -62 -1 -5 2 -8 6 -8 9 0
37 -70 34 -82 -1 -5 3 -8 9 -8 5 0 7 -4 4 -10 -3 -5 -2 -10 3 -10 9 0 19 -26
22 -55 1 -5 8 -17 16 -27 9 -9 17 -22 18 -30 1 -7 8 -23 14 -35 7 -13 10 -23
7 -23 -4 0 1 -7 9 -16 9 -8 14 -19 11 -24 -3 -5 -1 -11 5 -15 6 -4 8 -11 5
-16 -4 -5 -2 -9 4 -9 9 0 37 -68 33 -82 -1 -5 3 -8 9 -8 5 0 7 -4 4 -10 -3 -5
-2 -10 3 -10 9 0 22 -33 21 -54 -1 -5 3 -12 8 -15 11 -8 43 -79 43 -96 0 -7 5
-15 10 -17 6 -2 12 -13 14 -25 3 -12 12 -33 21 -47 10 -14 14 -26 11 -26 -4 0
1 -11 10 -25 9 -14 13 -25 9 -25 -3 0 1 -7 9 -16 9 -8 14 -19 11 -24 -3 -5 0
-10 5 -12 6 -2 12 -13 13 -26 0 -12 4 -22 8 -22 6 0 15 -22 24 -57 17 -65 20
79 20 863 l0 904 -501 0 c-275 0 -504 -3 -507 -7z"/>
<path d="M276 1248 c-8 -12 -13 -25 -10 -30 3 -4 0 -8 -7 -8 -7 0 -9 -3 -6 -7
4 -3 0 -17 -8 -30 -9 -13 -13 -23 -10 -23 3 0 0 -10 -7 -22 -7 -13 -11 -26
-10 -30 1 -5 -2 -8 -6 -8 -4 0 -8 -10 -9 -22 -1 -11 -7 -24 -13 -28 -7 -4 -10
-9 -8 -11 3 -4 -24 -75 -43 -111 -5 -10 -9 -25 -9 -33 0 -8 -5 -15 -11 -15 -5
0 -7 -4 -4 -10 3 -5 2 -10 -2 -10 -5 0 -9 -10 -10 -21 -1 -12 -8 -29 -16 -38
-8 -9 -12 -21 -10 -28 2 -6 -1 -14 -6 -18 -6 -3 -11 -9 -11 -13 0 -11 454 -8
462 2 3 5 0 19 -8 31 -8 12 -11 25 -7 28 3 4 2 7 -3 7 -10 0 -40 69 -36 83 1
4 -2 7 -7 7 -9 0 -26 48 -23 63 1 4 -3 7 -9 7 -5 0 -7 5 -4 10 3 6 2 10 -3 10
-5 0 -13 10 -17 23 -4 12 -8 25 -10 30 -6 18 -7 22 -6 30 0 4 -4 7 -10 7 -5 0
-7 5 -4 10 3 6 1 10 -4 10 -6 0 -10 3 -9 8 1 4 -3 17 -10 28 -6 12 -8 24 -5
28 3 3 1 6 -5 6 -7 0 -12 4 -12 9 0 5 -8 26 -17 47 -9 22 -16 42 -15 47 4 14
-7 7 -22 -15z"/>
<path d="M7 514 c-9 -10 -9 -416 1 -429 4 -6 152 -10 409 -10 376 0 401 1 400
18 -1 9 -5 17 -9 17 -4 0 -7 3 -6 7 1 5 -4 22 -11 38 -7 17 -12 32 -11 34 1 2
-3 7 -10 11 -6 4 -13 13 -14 21 -2 8 -8 25 -13 39 -6 14 -11 29 -11 34 0 5 -5
12 -10 15 -6 3 -12 15 -14 26 -1 11 -9 26 -16 33 -7 8 -10 18 -7 23 4 5 1 9
-5 9 -7 0 -10 7 -6 15 3 8 2 15 -3 15 -5 0 -12 10 -16 23 -4 12 -8 24 -10 27
-18 41 0 39 -324 40 -169 0 -310 -3 -314 -6z"/>
</g>
</svg>
